<?xml version="1.0" encoding="UTF-8" standalone="no"?>
<!-- Created with Inkscape (http://www.inkscape.org/) -->

<svg
   width="30"
   height="17"
   viewBox="0 0 7.9375 4.4979168"
   version="1.1"
   id="svg1"
   inkscape:version="1.4 (86a8ad7, 2024-10-11)"
   sodipodi:docname="Logo.svg"
   xmlns:inkscape="http://www.inkscape.org/namespaces/inkscape"
   xmlns:sodipodi="http://sodipodi.sourceforge.net/DTD/sodipodi-0.dtd"
   xmlns="http://www.w3.org/2000/svg"
   xmlns:svg="http://www.w3.org/2000/svg">
  <sodipodi:namedview
     id="namedview1"
     pagecolor="#ffffff"
     bordercolor="#000000"
     borderopacity="0.25"
     inkscape:showpageshadow="2"
     inkscape:pageopacity="0.0"
     inkscape:pagecheckerboard="0"
     inkscape:deskcolor="#d1d1d1"
     inkscape:document-units="px"
     inkscape:zoom="11.313709"
     inkscape:cx="21.522562"
     inkscape:cy="2.6516503"
     inkscape:window-width="1261"
     inkscape:window-height="1032"
     inkscape:window-x="643"
     inkscape:window-y="0"
     inkscape:window-maximized="0"
     inkscape:current-layer="layer1" />
  <defs
     id="defs1">
    <linearGradient
       id="swatch57"
       inkscape:swatch="solid">
      <stop
         style="stop-color:#87f4bd;stop-opacity:1;"
         offset="0"
         id="stop57" />
    </linearGradient>
    <inkscape:path-effect
       effect="bspline"
       id="path-effect56"
       is_visible="true"
       lpeversion="1.3"
       weight="33.333333"
       steps="2"
       helper_size="0"
       apply_no_weight="true"
       apply_with_weight="true"
       only_selected="false"
       uniform="false" />
    <inkscape:path-effect
       effect="bspline"
       id="path-effect55"
       is_visible="true"
       lpeversion="1.3"
       weight="33.333333"
       steps="2"
       helper_size="0"
       apply_no_weight="true"
       apply_with_weight="true"
       only_selected="false"
       uniform="false" />
    <inkscape:path-effect
       effect="bspline"
       id="path-effect54"
       is_visible="true"
       lpeversion="1.3"
       weight="33.333333"
       steps="2"
       helper_size="0"
       apply_no_weight="true"
       apply_with_weight="true"
       only_selected="false"
       uniform="false" />
    <inkscape:path-effect
       effect="bspline"
       id="path-effect17"
       is_visible="true"
       lpeversion="1.3"
       weight="33.333333"
       steps="2"
       helper_size="0"
       apply_no_weight="true"
       apply_with_weight="true"
       only_selected="false"
       uniform="false" />
    <inkscape:path-effect
       effect="bspline"
       id="path-effect16"
       is_visible="true"
       lpeversion="1.3"
       weight="33.333333"
       steps="2"
       helper_size="0"
       apply_no_weight="true"
       apply_with_weight="true"
       only_selected="false"
       uniform="false" />
    <inkscape:path-effect
       effect="spiro"
       id="path-effect15"
       is_visible="true"
       lpeversion="1" />
    <inkscape:path-effect
       effect="bspline"
       id="path-effect14"
       is_visible="true"
       lpeversion="1.3"
       weight="33.333333"
       steps="2"
       helper_size="0"
       apply_no_weight="true"
       apply_with_weight="true"
       only_selected="false"
       uniform="false" />
  </defs>
  <g
     inkscape:label="Layer 1"
     inkscape:groupmode="layer"
     id="layer1"
     transform="matrix(0.27559643,0,0,0.27988982,-0.27559643,-0.38266186)">
    <g
       id="g55"
       transform="matrix(0.81327164,0,0,1.1069498,-0.0114704,-1.8145909)"
       style="fill:none;fill-opacity:1">
      <g
         id="g17"
         style="fill:none;fill-opacity:1">
        <path
           style="display:inline;fill:none;fill-opacity:1;stroke:#f49dd6;stroke-width:0.153376;stroke-linecap:round;stroke-dasharray:none;stroke-opacity:1;paint-order:markers stroke fill"
           d="M 3.5764652,6.8149705 C 4.5596066,6.2314668 5.5427478,5.6479633 6.4957537,5.581587 7.4487596,5.5152108 8.3716295,5.9659619 9.1523718,6.3133142 9.9331141,6.6606666 10.571729,6.9046203 11.201803,6.9528884 11.831877,7.0011565 12.45341,6.8537389 12.888489,6.5323717 13.323567,6.2110045 13.572192,5.7156874 13.533299,5.2685972 13.494407,4.8215069 13.167998,4.4226434 12.732919,4.1876101 12.29784,3.9525768 11.754092,3.8813741 11.230959,3.9301143 10.707825,3.9788545 10.205306,4.1475376 9.8411365,4.4635999 9.476967,4.7796623 9.2655426,5.21356 9.2240564,5.75787 c -0.041486,0.5443101 0.1008047,1.0833038 0.5113813,1.7657555 0.4105763,0.6824517 1.0877633,1.5021179 1.8414013,2.3300122 0.753639,0.8278943 1.583639,1.6639183 2.144384,2.5604663 0.560745,0.896549 0.852172,1.85353 0.601199,2.486217 -0.250972,0.632687 -1.044346,0.941056 -1.90469,0.981023 -0.860343,0.03997 -1.78764,-0.188466 -2.364203,-0.634914 -0.5765626,-0.446448 -0.8023822,-1.110905 -0.7159877,-1.709078 0.086394,-0.598174 0.4850018,-1.130059 1.0615647,-1.543382 0.576564,-0.413323 1.331075,-0.708078 2.377836,-0.785733 1.046761,-0.07766 2.385766,0.06179 3.890726,0.288871 1.50496,0.227083 3.17587,0.541802 4.76824,0.965223 1.592371,0.42342 3.1062,0.95554 4.552313,1.263718 1.446113,0.308177 2.824504,0.39241 3.714911,0.140192 0.890407,-0.252218 1.292829,-0.840888 1.380691,-1.412436 0.08786,-0.571547 -0.138835,-1.125971 -0.560224,-1.352125 -0.421388,-0.226154 -1.037466,-0.124038 -1.439331,0.0066 -0.401864,0.130628 -0.589515,0.289767 -0.745482,0.451318 -0.155966,0.161551 -0.280249,0.325514 -0.389876,0.485682 -0.109627,0.160168 -0.204599,0.316542 -0.29957,0.472915 0.05304,-0.956412 0.10607,-1.912824 0.159105,-2.8692356"
           id="path16"
           sodipodi:nodetypes="cccccccccccccccccccccccccccccc"
           inkscape:original-d="M 3.5764652,6.8149705 C 4.5596066,6.2314668 5.5427478,5.6479633 6.5258894,5.0644595 7.4487596,5.5152108 8.3716295,5.9659619 9.2944995,6.416713 9.9331141,6.6606666 10.571729,6.9046202 11.210344,7.1485741 11.831877,7.0011564 12.45341,6.8537389 13.074943,6.7063213 13.323567,6.2110044 13.572192,5.7156876 13.820816,5.2203706 13.494407,4.8215067 13.167998,4.4226431 12.841588,4.0237794 12.29784,3.9525768 11.754092,3.8813741 11.210344,3.8101715 10.707825,3.9788545 10.205306,4.1475375 9.7027873,4.3162205 9.476967,4.7796623 9.2655426,5.21356 9.0253265,5.7065457 c 0.1572437,0.5956344 0.2995346,1.1346281 0.4434609,1.6798166 0.6772266,0.8197151 1.3544136,1.6393809 2.0316406,2.4590964 0.83005,0.8360733 1.66005,1.6720973 2.490101,2.5081713 0.291439,0.957023 0.582866,1.914004 0.874299,2.871008 -0.793378,0.30837 -1.586752,0.616739 -2.380133,0.92511 -0.927306,-0.228436 -1.854603,-0.45687 -2.7819077,-0.685305 -0.2258208,-0.664461 -0.4516404,-1.328918 -0.6774608,-1.993377 0.3986091,-0.531888 0.7972168,-1.063773 1.1958265,-1.595662 0.754517,-0.294757 1.509028,-0.589512 2.263542,-0.884268 1.339008,0.139445 2.678013,0.27889 4.01702,0.418335 1.670913,0.31472 3.341823,0.629439 5.012734,0.944159 1.51383,0.532121 3.027659,1.064242 4.541491,1.596363 1.378394,0.08423 2.756785,0.168466 4.135178,0.252699 0.402421,-0.588669 0.804843,-1.177339 1.207265,-1.766009 -0.226698,-0.554425 -0.453395,-1.108849 -0.680093,-1.663274 -0.616079,0.102117 -1.232157,0.204234 -1.848236,0.30635 -0.18765,0.159139 -0.375301,0.318278 -0.562952,0.477417 -0.124282,0.163963 -0.248565,0.327926 -0.372848,0.491889 -0.09497,0.156374 -0.284914,0.46912 -0.284914,0.46912 0,0 0.10607,-1.912824 0.159105,-2.8692356"
           inkscape:path-effect="#path-effect16" />
        <path
           style="display:inline;fill:none;fill-opacity:1;stroke:#f49dd6;stroke-width:0.153376;stroke-linecap:round;stroke-dasharray:none;stroke-opacity:1;paint-order:markers stroke fill"
           d="M 3.5764652,6.8149705 C 4.6656266,6.403083 5.7547661,5.9912038 6.7350943,6.0384004 7.7154226,6.085597 8.5868609,6.5918656 9.3777205,6.9982386 10.16858,7.4046117 10.878828,7.7110725 11.559208,7.7110727 c 0.680379,1e-7 1.330821,-0.3064549 1.711065,-0.6763301 C 13.650517,6.6648675 13.760519,6.2316079 13.749087,5.8807501 13.737654,5.5298923 13.604793,5.2614629 13.445832,5.0119395 13.286871,4.7624161 13.101833,4.5318339 12.682898,4.4286688 c -0.418935,-0.1031652 -1.071715,-0.0789 -1.557794,0.1341163 -0.486079,0.213016 -0.805399,0.6147579 -0.920007,1.0687847 -0.114608,0.4540267 -0.02449,0.9602859 0.488984,1.6097804 0.513476,0.6494945 1.450247,1.4421465 2.181912,2.2028423 0.731665,0.7606955 1.258139,1.4893465 1.579714,2.1564915 0.321574,0.667146 0.438215,1.272715 0.453216,1.762614 0.015,0.489899 -0.07164,0.864068 -0.24665,1.163177 -0.175011,0.29911 -0.438369,0.523119 -0.796006,0.669228 -0.357638,0.146109 -0.8095,0.214295 -1.266646,0.185556 -0.457146,-0.02874 -0.919515,-0.1544 -1.23491,-0.352206 -0.315395,-0.197805 -0.483776,-0.46773 -0.542912,-0.757589 -0.05914,-0.289858 -0.009,-0.599612 0.270146,-0.887642 0.279164,-0.288031 0.787342,-0.554303 1.42031,-0.687447 0.632968,-0.133144 1.39065,-0.133144 2.428733,0 1.038083,0.133144 2.356439,0.399416 3.935713,0.724581 1.579275,0.325164 3.419275,0.709182 5.056499,1.039964 1.637223,0.330782 3.071471,0.608288 4.416769,0.452823 1.345297,-0.155465 2.60148,-0.743881 3.11353,-1.573385 0.51205,-0.829504 0.279903,-1.899994 -0.327316,-2.386586 -0.607218,-0.486592 -1.589452,-0.389226 -2.182658,-0.173823 -0.593206,0.215404 -0.797356,0.548842 -1.001506,0.88228 0.06544,-1.107462 0.132288,-2.2386177 0.108871,-2.5669856 -0.02342,-0.3283679 -0.139827,0.1199705 -0.252445,0.553706"
           id="path17"
           sodipodi:nodetypes="ccccccccccccccccccccccccccccccc"
           inkscape:original-d="M 3.5764652,6.8149705 C 4.6656266,6.403083 5.7547661,5.9912038 6.8439492,5.5793081 7.7154226,6.085597 8.5868609,6.5918656 9.4583168,7.0981443 10.16858,7.4046117 10.878828,7.7110726 11.589106,8.0175463 12.239587,7.7110726 12.890029,7.4046178 13.54051,7.0981443 13.650517,6.6648675 13.760519,6.2316078 13.870524,5.7983397 13.737654,5.5298923 13.604793,5.2614627 13.471922,4.9930143 13.286871,4.7624161 13.101833,4.531834 12.916783,4.3012368 c -0.65282,0.024267 -1.3056,0.048532 -1.958419,0.072799 -0.319339,0.4017652 -0.638659,0.8035073 -0.957998,1.2052726 0.09012,0.5062886 0.18024,1.0125473 0.270363,1.5188362 0.936828,0.7926998 1.873599,1.5853519 2.810426,2.3780517 0.526504,0.7286917 1.052977,1.4573427 1.579479,2.1860327 0.116647,0.605601 0.233288,1.21117 0.349936,1.816773 -0.08665,0.374194 -0.173286,0.748364 -0.259932,1.122558 -0.263376,0.224025 -0.526734,0.448034 -0.790111,0.67206 -0.451898,0.06819 -0.90376,0.136378 -1.355654,0.204569 -0.462398,-0.125669 -0.924767,-0.25133 -1.387165,-0.376999 -0.168392,-0.269942 -0.336773,-0.539867 -0.505165,-0.80981 0.05012,-0.309774 0.100238,-0.619528 0.150358,-0.929301 0.508208,-0.266288 1.016386,-0.532561 1.524594,-0.798848 0.757728,0 1.51541,0 2.273139,0 1.318437,0.266288 2.636793,0.53256 3.955229,0.798848 1.840113,0.384041 3.680113,0.768059 5.520225,1.1521 1.434335,0.277523 2.868583,0.555029 4.302917,0.832551 1.256261,-0.588452 2.512444,-1.176867 3.768705,-1.76532 -0.232161,-1.070556 -0.464308,-2.141046 -0.696469,-3.2116 -0.982276,0.09737 -1.96451,0.194736 -2.946771,0.292104 -0.204151,0.333439 -0.612451,1.000315 -0.612451,1.000315 0,0 0.132288,-2.2386177 0.196332,-3.3223869 -0.110878,0.4270334 -0.227288,0.8753717 -0.339906,1.3091073"
           inkscape:path-effect="#path-effect17" />
      </g>
      <path
         style="fill:#be3ced;fill-opacity:1;stroke:none;stroke-width:0.00177882;stroke-linecap:round;stroke-dasharray:none;stroke-opacity:1;paint-order:markers stroke fill"
         d="M 8.4576443,5.7159572 C 7.800816,5.3697532 7.4071363,5.1904898 7.0199631,5.0613041 6.058232,4.7404093 5.2257741,4.7856113 3.8809437,5.2317512 3.744004,5.2771802 3.6289104,5.3143068 3.6251802,5.3142548 3.6094866,5.314036 3.9229018,5.1480834 4.1376795,5.0428876 4.7416243,4.7470822 5.2047264,4.5977591 5.6621311,4.5513421 c 0.1650438,-0.016749 0.5296935,-0.00766 0.6907814,0.017215 0.5189055,0.080132 0.9910852,0.23945 1.8110822,0.6110763 l 0.3581987,0.1623373 0.036112,0.1404795 c 0.019861,0.077264 0.051103,0.1839721 0.069425,0.2371297 0.018323,0.053158 0.032292,0.097672 0.031043,0.098921 -0.00125,0.00125 -0.091757,-0.044896 -0.2011291,-0.1025437 z"
         id="path44"
         transform="matrix(0.96003906,0,0,0.94531247,1,1.3671875)" />
      <path
         style="fill:#be3ced;fill-opacity:1;stroke:none;stroke-width:0.00177882;stroke-linecap:round;stroke-dasharray:none;stroke-opacity:1;paint-order:markers stroke fill"
         d="M 9.5238445,5.565812 C 9.3832586,5.5142651 8.9338698,5.3330075 8.8115832,5.2785268 8.6566455,5.2094996 8.6690337,5.2324376 8.6519192,4.9828931 8.6356521,4.7457057 8.6566667,4.4976586 8.7118255,4.2757863 8.9227227,3.4274669 9.6012677,2.9110219 10.650796,2.8000237 c 0.205709,-0.021756 0.570985,-0.016122 0.751301,0.011588 0.381152,0.058573 0.69086,0.1750112 0.948161,0.3564721 0.03839,0.027075 0.06804,0.050994 0.06588,0.053153 -0.0022,0.00216 -0.046,-0.010493 -0.09742,-0.028116 -0.220509,-0.075565 -0.465122,-0.1048761 -0.804291,-0.096374 -0.331852,0.00832 -0.564636,0.047778 -0.839668,0.1423323 -0.670657,0.2305684 -1.1273009,0.7860406 -1.2067561,1.4679254 -0.031545,0.2707175 0.017554,0.5771815 0.1384561,0.864224 0.010309,0.024475 -0.00357,0.023566 -0.082609,-0.00542 z"
         id="path45"
         transform="matrix(0.96003906,0,0,0.94531247,1,1.3671875)" />
      <path
         style="fill:#be3ced;fill-opacity:1;stroke:none;stroke-width:0.00177882;stroke-linecap:round;stroke-dasharray:none;stroke-opacity:1;paint-order:markers stroke fill"
         d="M 10.037602,6.4476665 C 9.7654558,6.3567314 9.4438147,6.2192199 9.0968548,6.0454684 L 8.8996017,5.9466874 8.848117,5.8155815 C 8.7918779,5.6723688 8.7283493,5.4790585 8.7283493,5.451142 c 0,-0.00992 0.00604,-0.015011 0.013811,-0.011647 0.3100356,0.134151 0.7699109,0.3118365 0.9169643,0.3542947 0.040461,0.011682 0.068898,0.027229 0.078455,0.042893 0.1378411,0.2259191 0.2618896,0.4006352 0.4037204,0.5686199 0.03716,0.044006 0.06755,0.082538 0.06755,0.085626 0,0.011434 -0.03099,0.00361 -0.171252,-0.043262 z"
         id="path46"
         transform="matrix(0.96003906,0,0,0.94531247,1,1.3671875)" />
      <path
         style="fill:#be3ced;fill-opacity:1;stroke:none;stroke-width:0.00177882;stroke-linecap:round;stroke-dasharray:none;stroke-opacity:1;paint-order:markers stroke fill"
         d="m 10.837293,6.6178152 c -0.05846,-0.00445 -0.150438,-0.014157 -0.204398,-0.021563 l -0.09811,-0.013466 -0.07048,-0.073505 C 10.331508,6.3707858 10.055312,6.0250698 9.9945307,5.9212608 l -0.020974,-0.035822 0.026498,0.00721 c 0.09287,0.025255 0.371582,0.075092 0.50711,0.090679 0.224112,0.025775 0.653648,0.017589 0.849976,-0.016199 0.46209,-0.079526 0.82539,-0.2324061 1.134926,-0.4775885 0.171689,-0.1359948 0.385965,-0.3990469 0.483709,-0.5938202 0.05676,-0.1131024 0.113606,-0.2744127 0.136313,-0.3868066 l 0.02064,-0.1021755 0.01261,0.04225 c 0.03587,0.1201679 0.04914,0.2526578 0.04295,0.4289486 -0.01274,0.3633345 -0.124248,0.6514131 -0.365252,0.9436319 -0.242842,0.2944485 -0.699838,0.5725677 -1.161306,0.7067502 -0.184117,0.053536 -0.555154,0.1068166 -0.690534,0.09916 -0.01519,-8.593e-4 -0.07545,-0.00521 -0.133911,-0.00966 z"
         id="path47"
         transform="matrix(0.96003906,0,0,0.94531247,1,1.3671875)" />
      <path
         style="fill:#be3ced;fill-opacity:1;stroke:none;stroke-width:0.00503125;stroke-linecap:round;stroke-dasharray:none;stroke-opacity:1;paint-order:markers stroke fill"
         d="M 12.017451,9.9375 C 11.84151,9.7398437 11.486449,9.3448812 11.228427,9.0598054 10.666325,8.4387675 10.07802,7.7346045 9.7290377,7.2651331 9.4801821,6.9303584 9.0556236,6.2777097 9.0744536,6.2588797 c 0.00518,-0.00518 0.1276496,0.044867 0.2721654,0.1112055 0.2637876,0.1210884 0.716991,0.2871416 0.950256,0.3481724 0.104967,0.027463 0.278113,0.1841279 1.080378,0.9775361 0.525458,0.5196572 1.078615,1.0846318 1.229238,1.255499 0.291611,0.3308058 0.71956,0.8884673 0.902905,1.1765783 l 0.111202,0.174746 -0.641627,-0.0029 -0.641628,-0.0029 z"
         id="path48"
         transform="matrix(0.96003906,0,0,0.94531247,1,1.3671875)" />
      <path
         style="fill:#be3ced;fill-opacity:1;stroke:none;stroke-width:0.00503125;stroke-linecap:round;stroke-dasharray:none;stroke-opacity:1;paint-order:markers stroke fill"
         d="M 11.051084,15.217472 C 10.487688,15.129487 9.8732026,14.888391 9.5091806,14.612499 9.0385724,14.255826 8.7720935,13.724994 8.7702966,13.140625 c -0.00233,-0.759066 0.4790436,-1.463523 1.3698264,-2.004629 0.551781,-0.33518 1.074071,-0.496789 1.994109,-0.617027 0.118432,-0.01548 0.119001,-0.01501 0.384592,0.318703 0.146291,0.183812 0.357196,0.467797 0.468678,0.631078 l 0.202694,0.296875 -0.13416,0.0073 c -1.120685,0.06096 -1.782471,0.244124 -2.358801,0.652844 -0.212003,0.150347 -0.368405,0.326344 -0.482529,0.542983 -0.06434,0.122127 -0.07408,0.183873 -0.07408,0.469407 0,0.306702 0.0067,0.34238 0.09985,0.53125 0.257122,0.521361 0.835723,0.838699 1.711667,0.938775 0.356994,0.04079 0.762179,0.01109 1.139384,-0.08352 0.162059,-0.04064 0.299978,-0.06858 0.306486,-0.06207 0.02097,0.02097 -0.169757,0.142487 -0.372585,0.237397 -0.372062,0.174099 -0.640422,0.22502 -1.244179,0.236082 -0.300781,0.0055 -0.629356,-0.0029 -0.730166,-0.0186 z"
         id="path49"
         transform="matrix(0.96003906,0,0,0.94531247,1,1.3671875)" />
      <path
         style="fill:#be3ced;fill-opacity:1;stroke:none;stroke-width:0.00503125;stroke-linecap:round;stroke-dasharray:none;stroke-opacity:1;paint-order:markers stroke fill"
         d="m 14.0625,13.752749 c 0,-0.406293 -0.139415,-0.94537 -0.379813,-1.46863 -0.06639,-0.144516 -0.157688,-0.269979 -0.14886,-0.278807 0.02597,-0.02597 0.746263,0.04353 0.77818,0.07545 0.01603,0.01603 0.04401,0.186701 0.06217,0.37926 0.03387,0.359158 0.01,0.74266 -0.06322,1.014476 -0.03659,0.135871 -0.205736,0.494257 -0.233278,0.494257 -0.0083,0 -0.01517,-0.0972 -0.01517,-0.216001 z"
         id="path50"
         transform="matrix(0.96003906,0,0,0.94531247,1,1.3671875)"
         sodipodi:nodetypes="csssscscc" />
      <path
         style="fill:#be3ced;fill-opacity:1;stroke:none;stroke-width:0.00503125;stroke-linecap:round;stroke-dasharray:none;stroke-opacity:1;paint-order:markers stroke fill"
         d="m 13.708126,11.810539 c -0.151937,-0.01347 -0.279571,-0.02909 -0.28363,-0.03471 -0.0041,-0.0056 -0.09888,-0.150834 -0.21071,-0.322709 -0.111831,-0.171875 -0.311988,-0.451116 -0.444793,-0.620535 -0.132805,-0.16942 -0.237111,-0.312371 -0.231791,-0.317668 0.01752,-0.01745 0.472001,-0.02942 0.839721,-0.0221 l 0.361297,0.0072 0.144236,0.289062 c 0.159759,0.320175 0.248798,0.545606 0.336166,0.851114 l 0.05822,0.203574 -0.146232,-0.0044 c -0.08043,-0.0024 -0.270544,-0.01538 -0.422481,-0.02885 z"
         id="path51"
         transform="matrix(0.96003906,0,0,0.94531247,1,1.3671875)" />
      <path
         style="fill:#be3ced;fill-opacity:1;stroke:none;stroke-width:0.00503125;stroke-linecap:round;stroke-dasharray:none;stroke-opacity:1;paint-order:markers stroke fill"
         d="m 27.0625,14.262877 c -0.06016,-0.007 -0.271094,-0.02799 -0.46875,-0.04669 -0.755668,-0.07147 -1.466333,-0.205011 -4.827438,-0.907094 -3.744389,-0.782146 -4.301601,-0.897292 -5.118943,-1.057819 -0.443166,-0.08704 -1.068948,-0.200446 -1.390625,-0.252019 -0.321678,-0.05157 -0.630572,-0.101266 -0.686432,-0.11043 -0.05995,-0.0098 -0.101562,-0.03513 -0.101562,-0.06175 0,-0.08254 -0.193203,-0.649653 -0.318738,-0.935606 -0.06811,-0.155156 -0.131748,-0.301015 -0.14141,-0.324132 -0.02048,-0.049 0.05725,-0.04336 1.053898,0.07642 1.917694,0.230487 4.302139,0.683942 6.0625,1.152921 0.528265,0.140735 0.812795,0.223219 2.15625,0.625089 2.271,0.679327 3.121666,0.876184 4.319424,0.999577 0.475139,0.04895 1.34094,0.05916 1.658165,0.01956 l 0.180714,-0.02256 -0.0088,0.31295 -0.0088,0.312949 -0.133881,0.0387 c -0.368451,0.106499 -0.910552,0.172062 -1.506744,0.182228 -0.335156,0.0057 -0.658594,0.0047 -0.71875,-0.0023 z"
         id="path52"
         transform="matrix(0.96003906,0,0,0.94531247,1,1.3671875)" />
      <path
         style="fill:#be3ced;fill-opacity:1;stroke:none;stroke-width:0.00503125;stroke-linecap:round;stroke-dasharray:none;stroke-opacity:1;paint-order:markers stroke fill"
         d="m 29.437844,13.835937 c 1.89e-4,-0.107421 0.0087,-0.245541 0.01881,-0.306933 l 0.01847,-0.11162 0.301502,-0.06814 c 0.831121,-0.187832 1.43373,-0.720479 1.613442,-1.426123 0.06097,-0.239417 0.06075,-0.671366 -4.68e-4,-0.906404 -0.103351,-0.396791 -0.380608,-0.727425 -0.725639,-0.865336 -0.250028,-0.09994 -0.869527,-0.09929 -1.242083,0.0013 -0.638146,0.172299 -1.002379,0.449733 -1.434495,1.092647 -0.06181,0.09196 -0.111984,0.148211 -0.111499,0.125 0.0086,-0.410426 0.160064,-2.6616479 0.183696,-2.729703 0.03688,-0.1062029 0.0237,0.3682671 -0.04297,1.546875 -0.02187,0.386719 -0.03805,0.705498 -0.03594,0.708397 0.0021,0.0029 0.04114,0.01464 0.08675,0.02608 0.07509,0.01885 0.09557,0.0021 0.217122,-0.177148 0.382542,-0.564245 0.921901,-0.8253395 1.779118,-0.8612393 0.333019,-0.013947 0.431258,-0.00642 0.654978,0.050149 0.470801,0.1190553 0.808051,0.3944363 1.012405,0.8266743 0.146461,0.309786 0.190385,0.516169 0.187335,0.880209 -0.0046,0.552502 -0.210239,0.996187 -0.661022,1.426419 -0.285057,0.272062 -0.543564,0.448669 -0.929227,0.63483 -0.258481,0.12477 -0.793866,0.329376 -0.861865,0.329376 -0.01582,0 -0.0286,-0.08789 -0.02842,-0.195313 z"
         id="path53"
         transform="matrix(0.96003906,0,0,0.94531247,1,1.3671875)" />
      <path
         style="fill:#be3ced;fill-opacity:1;stroke:none;stroke-width:0.153376;stroke-linecap:round;stroke-dasharray:none;stroke-opacity:1;paint-order:markers stroke fill"
         d="m 9.1816385,6.417019 c 0.2209956,0.091391 0.4419913,0.1827825 0.6742213,0.2684079 0.2322302,0.085625 0.4756842,0.1654815 0.7191442,0.2453393 0.06099,0.084612 0.121979,0.1692228 0.211781,0.2790927 0.0898,0.10987 0.208409,0.2449929 0.32702,0.3801185 C 10.981158,7.5585621 10.856728,7.5290926 10.705735,7.4837035 10.554742,7.4383143 10.364686,7.3705867 10.256852,7.3272011 10.149017,7.2838156 9.9578219,7.1987046 9.7768346,7.1121817 9.5958473,7.0256589 9.4633119,6.9576937 9.3090105,6.8785668 9.2844522,6.8027238 9.2598937,6.7268803 9.2386649,6.6499551 9.2174361,6.5730298 9.1995375,6.4950253 9.1816385,6.417019 Z"
         id="path54"
         sodipodi:nodetypes="ccccccccccc"
         inkscape:original-d="m 9.1816385,6.417019 c 0,0 0.4419913,0.1827825 0.6629869,0.2741738 0.2434646,0.079859 0.7303786,0.2395734 0.7303786,0.2395734 0,0 0.121979,0.1692229 0.182969,0.2538344 0.118613,0.1351283 0.355832,0.4053768 0.355832,0.4053768 0,0 -0.257077,-0.060885 -0.39794,-0.094246 C 10.554742,7.4383145 10.364686,7.3705868 10.26069,7.3335271 10.149017,7.2838156 9.9578219,7.1987047 9.7719146,7.1159475 9.5958473,7.0256589 9.3090105,6.8785668 9.3090105,6.8785668 c 0,0 -0.049117,-0.1516864 -0.073675,-0.227529 C 9.2174365,6.5730297 9.1816385,6.417019 9.1816385,6.417019 Z"
         inkscape:path-effect="#path-effect54" />
      <path
         style="fill:#be3ced;fill-opacity:1;stroke:none;stroke-width:0.153376;stroke-linecap:round;stroke-dasharray:none;stroke-opacity:1;paint-order:markers stroke fill"
         d="m 12.844331,11.100897 c 0.191265,0.238324 0.419168,0.522302 0.558368,0.714908 0.139201,0.192606 0.321632,0.476391 0.417445,0.626406 0.09581,0.150015 0.134335,0.211881 0.172858,0.273748 0.143783,0.01359 0.287566,0.02717 0.415616,0.03732 0.128051,0.01015 0.240365,0.01685 0.352682,0.02356 -0.05529,-0.242593 -0.11058,-0.485182 -0.221212,-0.762726 -0.110632,-0.277544 -0.276599,-0.590024 -0.442568,-0.90251 -0.2124,-0.0026 -0.424795,-0.0053 -0.633665,-0.0071 -0.20887,-0.0018 -0.414195,-0.0027 -0.619524,-0.0036 z"
         id="path55"
         sodipodi:nodetypes="ccccccccccc"
         inkscape:original-d="m 12.844331,11.100897 c 0,0 0.419168,0.522302 0.573794,0.714973 0.123775,0.192541 0.306206,0.476326 0.459308,0.714488 0.03852,0.06187 0.115569,0.185601 0.115569,0.185601 0,0 0.287566,0.02717 0.431348,0.04076 0.112319,0.0067 0.33695,0.02012 0.33695,0.02012 0,0 -0.11058,-0.485182 -0.165872,-0.727779 -0.165972,-0.312491 -0.497908,-0.937457 -0.497908,-0.937457 0,0 -0.424795,-0.0053 -0.637201,-0.0079 -0.205334,-9.16e-4 -0.615988,-0.0028 -0.615988,-0.0028 z"
         inkscape:path-effect="#path-effect55" />
    </g>
    <path
       id="path56"
       style="fill:#be3ced;fill-opacity:1;stroke:#fce9f6;stroke-width:0.195293;stroke-linecap:round;stroke-dasharray:none;stroke-opacity:1;paint-order:markers stroke fill"
       d="M 18.614182,2.1854283 A 2.5986332,3.207414 0 0 0 17.855915,2.3108216 2.5986332,3.207414 0 0 0 16.022821,5.9890269 2.5986332,3.207414 0 0 0 18.818842,8.5859416 2.5986332,3.207414 0 0 0 19.250244,8.4841731 2.248817,2.7756469 0 0 1 16.850289,6.2379963 2.248817,2.7756469 0 0 1 18.436026,3.0540954 2.248817,2.7756469 0 0 1 21.01561,4.3570959 L 20.994993,4.2189815 A 2.5986332,3.207414 0 0 0 18.614179,2.1854283 Z" />
  </g>
</svg>
