<?xml version="1.0" encoding="UTF-8" standalone="no"?>
<svg
   version="1.0"
   width="12pt"
   height="20pt"
   viewBox="0 0 12 20"
   preserveAspectRatio="xMidYMid"
   id="svg1"
   sodipodi:docname="table.svg"
   inkscape:version="1.4 (86a8ad7, 2024-10-11)"
   xmlns:inkscape="http://www.inkscape.org/namespaces/inkscape"
   xmlns:sodipodi="http://sodipodi.sourceforge.net/DTD/sodipodi-0.dtd"
   xmlns="http://www.w3.org/2000/svg"
   xmlns:svg="http://www.w3.org/2000/svg">
  <defs
     id="defs1" />
  <sodipodi:namedview
     id="namedview1"
     pagecolor="#ffffff"
     bordercolor="#000000"
     borderopacity="0.25"
     inkscape:showpageshadow="2"
     inkscape:pageopacity="0.0"
     inkscape:pagecheckerboard="0"
     inkscape:deskcolor="#d1d1d1"
     inkscape:document-units="pt"
     inkscape:zoom="15.13125"
     inkscape:cx="15.927303"
     inkscape:cy="7.5010327"
     inkscape:window-width="1920"
     inkscape:window-height="1009"
     inkscape:window-x="-8"
     inkscape:window-y="-8"
     inkscape:window-maximized="1"
     inkscape:current-layer="svg1" />
  <metadata
     id="metadata1">
Created by potrace 1.15, written by Peter Selinger 2001-2017
</metadata>
  <g
     transform="matrix(0.05454546,0,0,-0.04347836,0,556.52274)"
     fill="#000000"
     stroke="none"
     id="g1">
    <path
       d="m 59.279857,12799.507 c -5.067012,-0.455 -5.099284,-0.455 -6.132055,-1.63 -1.290951,-1.48 -7.164816,-4.78 -14.620094,-8.231 -5.389755,-2.503 -10.585862,-5.423 -20.526239,-11.529 -3.162846,-1.934 -6.648426,-3.754 -9.3271727,-4.778 -2.3559943,-0.949 -4.4860791,-1.935 -4.7442695,-2.238 -0.3227333,-0.38 -0.4841094,-1.479 -0.4841094,-3.527 l -0.032309,-2.997 1.5168803,-1.517 c 1.1941282,-1.251 1.4845994,-1.82 1.5168709,-2.882 0,-0.682 0.1936475,-1.972 0.4195664,-2.806 0.3550048,-1.403 0.2904619,-1.669 -0.5486616,-3.489 -0.645476,-1.403 -0.9036664,-2.504 -0.9036664,-3.793 0.032309,-0.986 -0.096824,-2.806 -0.2259189,-4.058 -0.225919,-1.934 -0.1936475,-2.275 0.3227333,-2.617 0.3227427,-0.265 0.5809331,-0.606 0.5809331,-0.796 0,-0.19 0.2581903,-0.531 0.5486616,-0.796 0.4518285,-0.418 0.4841093,-0.569 0.1290952,-1.063 -0.225919,-0.341 -0.3227427,-0.796 -0.1936475,-1.023 0.1290952,-0.228 -0.1290952,-1.214 -0.5486523,-2.2 -0.3872949,-0.986 -0.6777568,-2.01 -0.6454853,-2.237 0.064524,-0.266 -0.1613667,-1.025 -0.4841093,-1.707 -0.4518285,-1.024 -0.5486523,-2.314 -0.5809331,-6.94 -0.032309,-5.083 -0.2259096,-6.827 -1.7427899,-16.498 -0.9036663,-5.954 -1.7427898,-11.074 -1.80734209,-11.377 -0.61320452,-2.352 -0.96821866,-17.636 -0.64547597,-26.928 0.0968237,-1.972 0.16136664,-4.21 0.19363809,-4.93 0.032309,-0.721 -0.0645241,-2.389 -0.19363809,-3.641 -0.19364749,-1.707 -0.09682375,-2.806 0.25819039,-4.172 0.41955703,-1.517 0.48410933,-3.261 0.35501413,-9.861 -0.12909519,-7.584 -0.0968237,-8.039 0.51638084,-8.987 0.3872855,-0.569 0.6454853,-1.517 0.6454853,-2.428 0,-5.613 5.0992837,-44.145 9.0367015,-68.19 0.516381,-3.11 1.065042,-6.864 1.25868,-8.343 0.193648,-1.441 1.226419,-9.064 2.291452,-16.877 2.485099,-18.431 4.389265,-33.905 4.841093,-39.632 0.451838,-5.879 1.226409,-15.056 1.613704,-19.153 1.387776,-14.562 2.48509,-49.454 1.968709,-62.841 -0.161376,-4.21 -0.355014,-7.812 -0.451838,-7.965 -0.09682,-0.152 -0.322743,-2.502 -0.516381,-5.233 -0.355014,-4.59 -0.613204,-6.22 -2.291451,-14.412 -0.355014,-1.669 -0.710028,-4.095 -0.839124,-5.385 -0.193647,-2.276 -0.484109,-2.882 -0.935947,-2.01 -0.09682,0.227 -0.677747,0.379 -1.290952,0.379 -1.323233,0 -2.097813,-1.1 -2.097813,-3.034 0,-0.721 -0.225919,-1.669 -0.48411,-2.048 -0.645476,-1.025 -0.613204,-2.466 0.06452,-2.769 0.322742,-0.113 0.806852,-0.455 1.097313,-0.721 0.387286,-0.416 0.903667,-0.416 2.420547,-0.151 1.032762,0.227 3.388765,0.569 5.228379,0.759 4.389255,0.455 5.77704,0.985 6.390245,2.351 0.484109,1.1 0.903666,7.699 1.258681,19.645 0.09682,3.035 0.451837,8.495 0.806852,12.137 1.645966,17.256 2.388265,47.178 1.645966,65.535 -0.903667,22.413 -2.904656,52.564 -4.550622,68.53 -0.322743,3.337 -0.839124,9.065 -1.129595,12.705 -0.290462,3.642 -0.935938,11.151 -1.452328,16.687 -0.516381,5.538 -1.258681,14.222 -1.613695,19.342 -0.355014,5.12 -0.871395,12.289 -1.129585,15.929 -1.161866,16.194 -1.549152,26.321 -1.581423,41.908 -0.03231,11.074 0.09682,17.256 0.387285,20.29 0.580933,5.878 2.162357,15.776 3.162847,19.758 1.226409,5.083 3.711508,11.681 6.099773,16.308 0.613205,1.176 1.129595,2.39 1.129595,2.731 0,0.835 1.710519,1.404 4.841093,1.668 2.291452,0.152 3.291942,0.04 6.067503,-0.796 1.807342,-0.569 4.098793,-1.365 5.067003,-1.782 l 1.77507,-0.759 v -9.556 c 0.03231,-13.919 0.548662,-31.934 1.25869,-44.07 0.355005,-5.841 0.7423,-11.984 0.839114,-13.653 0.09682,-1.669 0.677757,-10.885 1.290962,-20.48 1.161866,-18.166 1.968708,-34.549 3.066022,-61.249 0.355014,-8.647 0.806852,-19.153 0.968219,-23.325 1.904166,-46.269 2.033261,-92.916 0.290471,-99.932 -0.51639,-2.086 0.129095,-9.747 0.903667,-10.468 0.871394,-0.835 5.292931,-0.227 6.809802,0.911 0.225919,0.189 0.645485,1.668 0.935947,3.299 0.387285,2.389 0.419566,3.451 0.161366,5.461 -0.25819,1.935 -0.225909,3.452 0.09682,6.486 0.548662,4.702 1.613704,21.807 2.097814,33.564 1.097313,26.433 1.226409,36.066 1.25868,100.122 0.03231,35.687 0.193638,73.992 0.387286,85.143 0.193647,11.149 0.25819,23.854 0.129095,28.216 -0.225919,7.585 -0.193638,7.889 0.355014,7.699 4.453808,-1.555 7.939397,-1.555 11.747719,-0.114 1.4846,0.569 3.098304,1.289 3.582413,1.593 0.7423,0.416 0.903666,0.416 1.032761,0 0.355015,-1.062 4.131066,-3.679 6.906625,-4.741 5.422027,-2.162 11.554068,-2.237 17.815218,-0.227 1.51687,0.455 4.16334,1.327 5.84159,1.858 5.87386,1.858 9.55309,2.541 14.52328,2.579 5.03473,0.04 7.5521,-0.455 10.94086,-2.238 4.67973,-2.389 9.19808,-8.875 11.10225,-15.852 2.00098,-7.245 3.64695,-21.694 4.42152,-38.874 0.45184,-9.329 0.45184,-93.068 0.0323,-111.121 -0.16136,-7.206 -0.48411,-18.129 -0.64547,-24.273 -1.64597,-54.005 -1.38778,-88.404 0.93594,-123.256 1.38778,-20.632 1.71052,-26.169 1.77506,-30.72 0.12911,-7.927 0.54867,-9.785 2.87239,-11.984 0.64548,-0.608 1.64597,-1.556 2.19463,-2.125 0.87139,-0.909 1.25869,-1.061 3.03375,-1.061 1.90416,0 2.16235,0.113 3.35649,1.365 1.16187,1.252 1.29096,1.555 1.29096,3.148 0,1.934 -0.64548,3.337 -1.77507,3.83 -0.67775,0.304 -0.7423,0.645 -0.90366,3.869 -0.12911,1.934 -0.41957,5.233 -0.71003,7.319 -0.80685,6.106 -1.19414,23.286 -1.0005,46.459 0.16137,19.303 0.90367,47.937 1.32323,52.337 0.0968,0.948 0.45184,8.116 0.80685,15.929 1.19414,25.864 2.93693,53.057 5.16384,80.401 3.45331,42.666 4.55062,69.479 4.64745,114.345 0.0645,28.595 0.19364,30.454 1.9687,33.64 0.90368,1.631 0.96822,1.631 4.45381,0.986 3.03375,-0.532 4.22789,-0.04 5.61567,2.313 0.67775,1.138 1.12959,1.517 1.80734,1.555 0.77457,0 1.00049,-0.265 1.51688,-1.745 0.83912,-2.237 2.06553,-8.078 2.71101,-12.666 0.96822,-7.245 1.29096,-12.516 1.25868,-21.997 -0.0645,-20.48 -1.4846,-44.07 -5.09929,-84.005 -3.32421,-36.977 -5.84158,-69.062 -7.32618,-93.865 -0.22592,-4.02 -0.38728,-14.98 -0.38728,-27.685 0,-19.721 0.0323,-21.846 0.87139,-33.374 0.58093,-8.117 0.77457,-12.365 0.54865,-12.44 -0.6132,-0.265 -0.38728,-10.998 0.35502,-15.512 0.35501,-2.238 0.83912,-4.324 1.03277,-4.588 0.64547,-0.948 2.77556,-1.973 4.00197,-1.973 1.4846,0 8.84306,2.048 9.779,2.731 0.80685,0.607 0.80685,1.441 0,3.224 -0.35501,0.796 -0.64548,1.744 -0.64548,2.123 0,1.101 -1.45233,2.503 -2.87238,2.769 l -1.32323,0.265 v 1.707 c 0,0.986 -0.35501,3.451 -0.77458,5.575 -0.41955,2.086 -0.93594,5.84 -1.16185,8.344 -0.19365,2.503 -0.51639,5.384 -0.71003,6.409 -0.35502,1.934 -0.22592,13.502 0.38728,35.498 0.64548,21.732 1.29097,31.819 3.42104,51.199 0.61321,5.727 1.35551,12.402 1.6137,14.791 0.2582,2.39 0.74231,6.334 1.09732,8.723 0.32273,2.389 1.06503,8.116 1.61369,12.705 0.54866,4.589 1.35551,10.732 1.77507,13.653 2.61419,17.484 5.35748,37.508 7.26164,53.209 1.64597,13.16 3.55014,32.01 3.55014,34.739 0,1.29 0.0645,1.404 0.51638,0.948 0.41955,-0.379 0.54865,-0.379 0.80685,0.08 0.54865,1.024 0.51638,13.197 -0.0645,15.739 -0.29047,1.366 -0.2582,1.782 0.35501,3.186 0.54865,1.251 0.67776,2.199 0.64548,4.512 0,1.593 0.0645,3.982 0.19364,5.348 0.1291,1.858 0.0645,2.845 -0.32274,3.944 -0.35501,1.024 -0.41956,1.593 -0.19364,1.935 0.80684,1.175 -1.0005,24.992 -2.80784,36.977 -0.355,2.313 -0.54865,5.689 -0.58092,9.519 0,5.12 -0.0645,6.068 -0.54867,6.675 -0.32274,0.417 -0.58093,1.289 -0.58093,1.934 0,0.645 -0.16136,1.289 -0.35501,1.404 -0.41956,0.34 -0.90367,1.82 -1.25868,3.982 -0.25819,1.592 -0.22592,1.782 0.71003,2.919 l 0.96821,1.177 -0.19364,3.716 c -0.0968,2.01 -0.32274,3.869 -0.48411,4.096 -0.45183,0.682 -0.93594,2.883 -1.12959,5.233 l -0.19365,2.201 2.19463,1.289 2.19464,1.29 -0.0645,2.995 c -0.0323,1.631 -0.0645,3.11 -0.0968,3.262 0,0.151 -1.38777,1.062 -3.00148,1.972 l -3.00147,1.706 -6.29342,0.38 c -8.90762,0.568 -18.10569,1.555 -39.69696,4.361 -20.33259,2.655 -33.339,4.097 -63.09558,7.016 -19.009352,1.896 -29.982491,3.262 -34.855855,4.362 -1.420057,0.304 -2.646466,0.531 -2.74329,0.531 -0.09682,-0.04 -2.452818,-0.266 -5.228379,-0.493 z"
       id="path1"
       style="stroke-width:0.0349857" />
  </g>
</svg>
