<?xml version="1.0" encoding="UTF-8" standalone="no"?>
<!-- Created with Inkscape (http://www.inkscape.org/) -->

<svg
   width="19.5"
   height="7"
   viewBox="0 0 5.1593744 1.8520831"
   version="1.1"
   id="svg1"
   inkscape:version="1.4 (86a8ad7, 2024-10-11)"
   sodipodi:docname="pageLight.svg"
   xmlns:inkscape="http://www.inkscape.org/namespaces/inkscape"
   xmlns:sodipodi="http://sodipodi.sourceforge.net/DTD/sodipodi-0.dtd"
   xmlns="http://www.w3.org/2000/svg"
   xmlns:svg="http://www.w3.org/2000/svg">
  <sodipodi:namedview
     id="namedview1"
     pagecolor="#ffffff"
     bordercolor="#000000"
     borderopacity="0.25"
     inkscape:showpageshadow="2"
     inkscape:pageopacity="0.0"
     inkscape:pagecheckerboard="0"
     inkscape:deskcolor="#d1d1d1"
     inkscape:document-units="mm"
     inkscape:zoom="16.000001"
     inkscape:cx="18.093749"
     inkscape:cy="7.1562497"
     inkscape:window-width="1920"
     inkscape:window-height="1009"
     inkscape:window-x="-8"
     inkscape:window-y="-8"
     inkscape:window-maximized="1"
     inkscape:current-layer="svg1" />
  <defs
     id="defs1" />
  <path
     d="M 0.45257516,1.6763819 H 0.31555626 Q 0.02462575,1.3441548 0.02462575,0.85708225 q 0,-0.4889509 0.29093051,-0.8324356 h 0.1388958 q -0.29468441,0.3566248 -0.29468441,0.8305572 0,0.47018405 0.29280751,0.82117805 z M 0.80732266,0.86177605 V 1.3704351 H 0.64965706 V 0.02464665 H 1.0194204 q 0.2158517,0 0.3341008,0.1051087 0.1191877,0.1051128 0.1191877,0.2965633 0,0.1914505 -0.1323264,0.3134518 -0.131388,0.1220056 -0.35568614,0.1220056 z m 0,-0.6944786 v 0.5518278 h 0.1651734 q 0.16329654,0 0.24869874,-0.074139 0.086341,-0.07508 0.086341,-0.2111628 0,-0.2665263 -0.31533124,-0.2665263 z M 2.3933632,1.3704351 H 2.2394516 v -0.15016 h -0.00375 q -0.100418,0.1726836 -0.295623,0.1726836 -0.1435882,0 -0.2252365,-0.076017 -0.08071,-0.076017 -0.08071,-0.2017752 0,-0.26934595 0.317208,-0.31345605 l 0.2881151,-0.04037 q 0,-0.244944 -0.1980204,-0.244944 -0.1736199,0 -0.3134542,0.1182488 v -0.1576653 q 0.1417113,-0.090094 0.326593,-0.090094 0.3387932,0 0.3387932,0.358499 z M 2.2394516,0.88429965 2.0076457,0.91621915 q -0.1069874,0.015019 -0.1614195,0.053494 -0.054432,0.0375249 -0.054432,0.13420455 0,0.070386 0.04974,0.1154333 0.050678,0.04411 0.1342035,0.04411 0.1144952,0 0.1886356,-0.079774 0.075079,-0.080711 0.075079,-0.20364945 z M 3.5035915,1.2934767 q 0,0.5293085 -0.5067822,0.5293085 -0.1783122,0 -0.3115772,-0.067571 V 1.6013019 q 0.162358,0.090094 0.3097003,0.090094 0.3547475,0 0.3547475,-0.3772701 V 1.2090133 h -0.00375 Q 3.2361272,1.3929587 3.015583,1.3929587 q -0.1792507,0 -0.2890535,-0.1276364 -0.1088643,-0.1285694 -0.1088643,-0.34442185 0,-0.244944 0.1173107,-0.3894731 0.1182492,-0.144525 0.322839,-0.144525 0.1942665,0 0.288115,0.1557868 h 0.00375 V 0.40942595 H 3.5035915 Z M 3.3496799,0.93591475 v -0.1417095 q 0,-0.1144963 -0.077894,-0.1961443 -0.076956,-0.081648 -0.1923896,-0.081648 -0.1426497,0 -0.2233595,0.1041716 -0.08071,0.1032345 -0.08071,0.2899912 0,0.16048055 0.076956,0.25714705 0.077894,0.095725 0.2055283,0.095725 0.129511,0 0.2102207,-0.091973 0.081648,-0.091973 0.081648,-0.23556005 z m 1.2378624,-0.00753 H 3.9090171 q 0.00377,0.16048065 0.086341,0.24776375 0.082587,0.087279 0.2271138,0.087279 0.1623581,0 0.2984383,-0.1069871 v 0.144525 q -0.1266956,0.091973 -0.3350396,0.091973 -0.203651,0 -0.3200232,-0.1304519 -0.1163729,-0.1313854 -0.1163729,-0.36882435 0,-0.2242988 0.1266956,-0.3650712 0.1276343,-0.1417095 0.3162698,-0.1417095 0.1886354,0 0.2918691,0.1220014 0.1032333,0.1220013 0.1032333,0.338795 z M 4.4298767,0.79793685 q -9.203e-4,-0.1332631 -0.064756,-0.207406 -0.062878,-0.0741388 -0.1754966,-0.0741388 -0.1088645,0 -0.1848816,0.077891 -0.076018,0.077896 -0.093849,0.2036535 z M 4.8240408,1.676361 H 4.6870217 q 0.2928075,-0.350994 0.2928075,-0.82117805 0,-0.4739324 -0.2946842,-0.8305572 h 0.1388958 q 0.2928074,0.3434847 0.2928074,0.8324355 0,0.48707265 -0.2928074,0.81929975 z"
     id="text33"
     style="font-size:4.59436px;font-family:Gadugi;-inkscape-font-specification:Gadugi;text-align:center;text-anchor:middle;display:inline;mix-blend-mode:normal;fill:#5883aa;stroke:#5ec1f7;stroke-width:0.0492515;stroke-linecap:round;stroke-dasharray:none;stroke-opacity:1;paint-order:markers stroke fill"
     aria-label="(Page)" />
</svg>
